<svg viewBox="0 0 1200 800" xmlns="http://www.w3.org/2000/svg">
  <rect width="1200" height="800" fill="#10151A"/>
  <rect x="0.5" y="0.5" width="1199" height="799" fill="none" stroke="#29323D"/>
  
  <rect x="120" y="120" width="360" height="16" rx="4" fill="#EDEFEF" opacity="0.85"/>
  <rect x="120" y="150" width="220" height="12" rx="4" fill="#5B6472"/>
  <line x1="120" y1="640" x2="1080" y2="640" stroke="#29323D"/>
  <rect x="160" y="460" width="60" height="160" rx="6" fill="#1F2733" stroke="#29323D"/><rect x="160" y="460" width="60" height="10" rx="5" fill="#F2A63A"/><rect x="270" y="360" width="60" height="260" rx="6" fill="#1F2733" stroke="#29323D"/><rect x="270" y="360" width="60" height="10" rx="5" fill="#F2A63A"/><rect x="380" y="500" width="60" height="120" rx="6" fill="#1F2733" stroke="#29323D"/><rect x="380" y="500" width="60" height="10" rx="5" fill="#F2A63A"/><rect x="490" y="300" width="60" height="320" rx="6" fill="#1F2733" stroke="#29323D"/><rect x="490" y="300" width="60" height="10" rx="5" fill="#F2A63A"/><rect x="600" y="400" width="60" height="220" rx="6" fill="#1F2733" stroke="#29323D"/><rect x="600" y="400" width="60" height="10" rx="5" fill="#F2A63A"/><rect x="710" y="260" width="60" height="360" rx="6" fill="#1F2733" stroke="#29323D"/><rect x="710" y="260" width="60" height="10" rx="5" fill="#F2A63A"/><rect x="820" y="440" width="60" height="180" rx="6" fill="#1F2733" stroke="#29323D"/><rect x="820" y="440" width="60" height="10" rx="5" fill="#F2A63A"/>
  <rect x="860" y="120" width="220" height="70" rx="12" fill="#171E26" stroke="#29323D"/>
  <rect x="880" y="140" width="90" height="10" rx="3" fill="#5B6472"/>
  <rect x="880" y="160" width="140" height="16" rx="4" fill="#5EE6B0"/>
  
</svg>