<svg viewBox="0 0 1200 800" xmlns="http://www.w3.org/2000/svg">
  <rect width="1200" height="800" fill="#10151A"/>
  <rect x="0.5" y="0.5" width="1199" height="799" fill="none" stroke="#29323D"/>
  
  <rect x="100" y="100" width="1000" height="600" rx="14" fill="#171E26" stroke="#29323D"/>
  <rect x="140" y="130" width="260" height="18" rx="4" fill="#EDEFEF" opacity="0.85"/>
  <circle cx="160" cy="160" r="6" fill="#5EE6B0"/><rect x="184" y="152" width="220" height="14" rx="4" fill="#EDEFEF" opacity="0.7"/><rect x="980" y="152" width="100" height="14" rx="4" fill="#5B6472"/><rect x="120" y="186" width="960" height="1" fill="#29323D"/><circle cx="160" cy="226" r="6" fill="#F2A63A"/><rect x="184" y="218" width="160" height="14" rx="4" fill="#EDEFEF" opacity="0.7"/><rect x="980" y="218" width="100" height="14" rx="4" fill="#5B6472"/><rect x="120" y="252" width="960" height="1" fill="#29323D"/><circle cx="160" cy="292" r="6" fill="#5EE6B0"/><rect x="184" y="284" width="260" height="14" rx="4" fill="#EDEFEF" opacity="0.7"/><rect x="980" y="284" width="100" height="14" rx="4" fill="#5B6472"/><rect x="120" y="318" width="960" height="1" fill="#29323D"/><circle cx="160" cy="358" r="6" fill="#F2A63A"/><rect x="184" y="350" width="190" height="14" rx="4" fill="#EDEFEF" opacity="0.7"/><rect x="980" y="350" width="100" height="14" rx="4" fill="#5B6472"/><rect x="120" y="384" width="960" height="1" fill="#29323D"/><circle cx="160" cy="424" r="6" fill="#5EE6B0"/><rect x="184" y="416" width="140" height="14" rx="4" fill="#EDEFEF" opacity="0.7"/><rect x="980" y="416" width="100" height="14" rx="4" fill="#5B6472"/><rect x="120" y="450" width="960" height="1" fill="#29323D"/>
  
</svg>